<svg xmlns="http://www.w3.org/2000/svg" viewBox="0 0 32 32">
  <rect width="32" height="32" rx="6" fill="#16191c"/>
  <g fill="#3a4046">
    <rect x="4" y="4" width="5" height="5"/><rect x="10" y="4" width="5" height="5"/><rect x="16" y="4" width="5" height="5"/><rect x="22" y="4" width="5" height="5"/>
    <rect x="4" y="10" width="5" height="5"/><rect x="22" y="10" width="5" height="5"/>
    <rect x="4" y="16" width="5" height="5"/><rect x="22" y="16" width="5" height="5"/>
    <rect x="4" y="22" width="5" height="5"/><rect x="10" y="22" width="5" height="5"/><rect x="22" y="22" width="5" height="5"/>
  </g>
  <g fill="#2fb3a9">
    <rect x="10" y="10" width="5" height="5"/><rect x="16" y="10" width="5" height="5"/>
    <rect x="10" y="16" width="5" height="5"/><rect x="16" y="16" width="5" height="5"/>
    <rect x="16" y="22" width="5" height="5"/>
  </g>
</svg>
